# xmcd
#
# Track frame offsets: 
#        150
#        14075
#        24434
#        36204
#        52910
#        66067
#        75863
#        87192
#        98117
#        107203
#        119821
#
# Disc length: 1820 seconds
#
# Revision: 1
# Processed by: cddbd v1.5.2PL0 Copyright (c) Steve Scherf et al.
# Submitted via: ExactAudioCopy v1.1
#
DISCID=85071a0b
DTITLE=Fucking Buckaroos - II
DYEAR=2012
DGENRE=Bluegrass
TTITLE0=Hatchet's Wife
TTITLE1=Runs Deep
TTITLE2=Shotgun Slade
TTITLE3=Death Will Not Turn Away
TTITLE4=Toto James
TTITLE5=The 29
TTITLE6=Footsteps
TTITLE7=Vampyres
TTITLE8=Excelsior
TTITLE9=Heading Back
TTITLE10=Ride Around
EXTD=
EXTT0=
EXTT1=
EXTT2=
EXTT3=
EXTT4=
EXTT5=
EXTT6=
EXTT7=
EXTT8=
EXTT9=
EXTT10=
PLAYORDER=
